<?xml version="1.0" encoding="UTF-8"?><svg id="logos" xmlns="http://www.w3.org/2000/svg" viewBox="0 0 1920 662.39"><defs><style>.cls-1,.cls-2,.cls-3{stroke-width:0px;}.cls-4{opacity:0;}.cls-2{fill:#fff;}.cls-3{fill:#059174;}</style></defs><g id="logo-white-iasa"><g id="iasa-logo"><g id="g188"><g id="path198"><path class="cls-3" d="m1580.64,473.35l-63.69-305.35,196.92-69.96,198.15,70.52-61.44,307.7c-44.52,30.79-90.17,59.83-135.75,89.01-45.63-29.33-89.84-60.71-134.19-91.92Z"/></g><g id="path325"><path class="cls-2" d="m1849.04,468.43l22.83-112.28c-75.71-15.37-101.22-73.3-145.64-131.88,29.5.07,53.82-6.87,75.29,13.48-15.54-101.53-91.32-105.45-161.8-56.7,34.1,135.4,42.54,131.28-79.94,182.85l21.69,104.33,133.9,88.64,133.67-88.45Z"/></g></g><g id="g1001"><g id="path2900"><g class="cls-4"><path class="cls-1" d="m1849.04,468.43l22.99-108.01c-75.7-15.37-101.38-77.56-145.8-136.15,29.5.07,53.82-6.87,75.29,13.48-15.54-101.53-91.32-105.45-161.8-56.7,34.1,135.4,43.03,128.37-79.45,179.94l21.2,107.25,133.9,88.64,133.67-88.45Z"/></g><path class="cls-1" d="m1715.37,564.07l-139.29-92.22-22.63-114.5,12.19-5.13c51.53-21.67,77.4-32.54,86.25-49.29,8.77-16.59,2.19-42.06-10.91-92.82-2.24-8.68-4.56-17.66-7.06-27.61l-1.02-4.03,3.42-2.36c20.68-14.31,41.18-23.88,60.92-28.45,21.06-4.88,40.08-3.76,56.5,3.32,19.81,8.54,45.22,30.37,53.71,85.86l2.65,17.3-12.7-12.04c-15.08-14.29-31.75-13.46-52.86-12.41-2.17.11-4.37.22-6.6.31,6.58,9.07,12.78,18.15,18.84,27,31.49,46.04,58.68,85.81,116.45,97.54l5.93,1.2-24.76,116.33-139.03,91.99Zm-128.5-99.45l128.5,85.07,128.32-84.91,21.24-99.8c-58.54-14.18-87.48-56.5-118.06-101.21-8.06-11.78-16.39-23.96-25.42-35.88l-7.31-9.65,12.11.03c6.08.01,11.98-.28,17.7-.56,17.14-.85,33.55-1.67,48.83,6.37-7.51-31.58-22.49-52.91-43.78-62.08-27.06-11.66-64.22-3.76-102.42,21.65,2.11,8.32,4.09,16.01,6.02,23.47,13.87,53.75,20.84,80.72,9.9,101.42-10.85,20.54-38.04,31.97-92.2,54.74l-3.18,1.34,19.76,100Z"/></g><g id="path993"><path class="cls-1" d="m1723.79,174.15s8.58-2.47,15.36-.1c0,0,2.57,4.09-.12,8.56,0,0-8.32-1.04-15.24-8.46Z"/></g><g id="path999"><path class="cls-1" d="m1576.7,477.62l-66.28-314.7c68.06-23.52,136.13-47.05,204.19-70.57,68.47,23.53,136.93,47.07,205.4,70.6-22.17,104.94-44.34,209.89-66.51,314.83-46.14,30.75-92.27,61.49-138.41,92.24-46.13-30.8-92.26-61.6-138.39-92.41Zm264.57-10.02l61.77-292.83c-62.74-21.66-125.47-43.33-188.21-64.99l-187.19,64.73,61.7,292.36,125.97,84.27c41.99-27.85,83.98-55.7,125.96-83.55Z"/></g></g></g><g id="yolocon-logo"><g id="year-block"><polygon class="cls-2" points="1387.43 485.65 1387.43 413.03 1342.15 485.65 1387.43 485.65"/><path class="cls-2" d="m1128.04,348.65v238.25h354.35v-238.25h-354.35Zm130.03,185.05v-24.71h25.96v50.39h-115.97v-26.92l72.51-69.45c6.25-6.44,10.77-12.49,13.58-18.16,2.8-5.66,4.2-11.11,4.2-16.36,0-4.69-.9-8.74-2.69-12.15-1.79-3.4-4.09-6.19-6.89-8.35-2.8-2.16-5.99-3.73-9.58-4.69-3.58-.97-7.16-1.45-10.75-1.45-11.3,0-20.18,3.31-26.66,9.94-6.48,6.63-9.71,16.43-9.71,29.41h-26.78c0-20.34,5.41-36.26,16.22-47.77,10.81-11.5,26.48-17.26,47.01-17.26,7.73,0,15.14,1.13,22.23,3.38,7.09,2.26,13.32,5.55,18.71,9.87,5.38,4.33,9.66,9.8,12.84,16.43,3.18,6.63,4.76,14.18,4.76,22.64s-2.26,17.12-6.76,25.96c-4.51,8.84-10.72,17.21-18.64,25.13l-56.33,54.12h52.74Zm187.07-22.37h-29.41v22.37h29.41v25.68h-86.57v-25.68h28.85v-22.37h-70.96v-25.82l65.86-106.31h33.41v106.45h29.41v25.68Z"/></g><g id="letters"><path id="path1978" class="cls-2" d="m1128.04,75.49h354.35v238.25h-354.35V75.49Zm333.46,17.02h-314.12v200.39h314.12V92.51Z"/><path id="path1976" class="cls-2" d="m753.57,75.49h19.34v218.95h334.23v19.34h-353.58V75.49Z"/><path id="path1974" class="cls-2" d="m376.01,75.49h354.35v238.3h-354.35V75.49Zm333.46,18.57h-314.12v200.39h314.12V94.06Z"/><path id="path1972" class="cls-2" d="m166.34,242.6H0V75.49h22.44v150.1h312.57V75.49h19.34v167.11c-55.32.13-110.64.26-165.96.39l-.4,70.79h-21.65c0-23.73,0-47.45,0-71.18Z"/><path id="path1970" class="cls-2" d="m376.79,348.6h353.58v238.3h-353.58v-238.3Zm333.47,18.57h-314.9v199.35c.35.35.69.69,1.04,1.04,104.49-.13,208.98-.26,313.47-.39.13-66.67.26-133.33.39-200h0Z"/><path id="path1968" class="cls-2" d="m0,348.6h354.35v18.57H19.34v200.39h335.01v19.34H0v-238.3Z"/><path id="path1220" class="cls-2" d="m772.93,375.68h-.79v211.22h-18.57v-237.52c6.58,0,13.15,0,19.73,0,105.85,71.78,219.53,148.95,312.4,211.99h.55v-212.76h20.89v238.3h-20.51c-105.29-71.72-217.39-145.55-313.71-211.22Z"/></g></g></g></svg>